<?xml version="1.0" encoding="UTF-8"?>
<svg width="72px" height="66px" viewBox="0 0 72 66" version="1.1" xmlns="http://www.w3.org/2000/svg" xmlns:xlink="http://www.w3.org/1999/xlink">
    <!-- Generator: Sketch 48.2 (47327) - http://www.bohemiancoding.com/sketch -->
    <title>Guess Definition</title>
    <desc>Created with Sketch.</desc>
    <defs></defs>
    <g id="Page-1" stroke="none" stroke-width="1" fill="none" fill-rule="evenodd">
        <g id="Guess-Definition" fill-rule="nonzero">
            <path d="M69.5,39.9 L58.8,58.5 C56.3,62.8 51.7,65.4 46.8,65.4 L25.3,65.4 C20.3,65.4 15.8,62.8 13.3,58.5 L2.5,39.9 C0,35.6 0,30.3 2.5,26 L13.2,7.4 C15.7,3.1 20.3,0.5 25.2,0.5 L46.7,0.5 C51.7,0.5 56.2,3.1 58.7,7.4 L69.4,26 C72,30.4 72,35.6 69.5,39.9 Z" id="Shape" fill="#11838E"></path>
            <g id="noun_1216353_ffffff" transform="translate(7.000000, 7.000000)" fill="#FFFFFF">
                <path d="M53.5198222,22.1166667 C52.8566889,21.8525641 52.1091333,22.1730769 51.8436222,22.8294872 C51.5787556,23.4865385 51.8996889,24.2326923 52.5602444,24.4967949 C55.2978444,25.5884615 54.9820667,26.5467949 54.8125778,27.0608974 C54.4426667,28.1807692 51.0857556,29.5224359 46.6777556,30.3852564 L52.2676667,20.7551282 C53.3612889,18.8711538 52.7116889,16.4628205 50.8189556,15.375 L25.4465333,0.803205128 C23.5525111,-0.284615385 21.1319778,0.360897436 20.0364222,2.24551282 L6.97997778,24.7416667 C4.12895556,23.8423077 2.74662222,22.8269231 2.74082222,22.1333333 C2.72986667,21.0141026 4.37771111,19.4461538 9.03511111,18.400641 C9.72917778,18.2442308 10.1654667,17.5583333 10.0082222,16.8673077 C9.85162222,16.1769231 9.16206667,15.7448718 8.46735556,15.899359 C1.20511111,17.5294872 0.147577778,20.5198718 0.163044444,22.1570513 C0.203644444,26.7685897 10.15,28.3634615 14.9659333,28.8647436 C14.9652889,28.8929487 14.9691556,28.9205128 14.9665778,28.949359 C14.9582,29.0179487 14.9453111,29.0833333 14.9240444,29.1461538 C14.7719556,29.7794872 14.1616667,30.2217949 13.4920889,30.1557692 C10.0617111,29.8262821 7.21777778,29.2878205 4.96222222,28.5602564 C4.5762,30.2051282 5.29088889,31.974359 6.83691111,32.8634615 L31.4566222,47 L23.3862444,47 C22.5852,47 21.9362444,47.6461538 21.9362444,48.4423077 C21.9362444,49.2384615 22.5852,49.8846154 23.3862444,49.8846154 L43.8647556,49.8846154 C44.6651556,49.8846154 45.3147556,49.2384615 45.3147556,48.4423077 C45.3147556,47.6461538 44.6651556,47 43.8647556,47 L36.7771556,47 C37.1032444,46.7192308 37.3906667,46.3846154 37.6188,45.9923077 L43.9588444,35.0692308 C42.5565333,35.1942308 41.2012667,35.2583333 39.9697333,35.2666667 C39.3040222,35.2679487 38.7427111,34.8160256 38.5899778,34.2025641 C38.5532444,34.0935897 38.5384222,33.9769231 38.5429333,33.8570513 C38.5429333,33.8461538 38.5468,33.8378205 38.5468,33.8269231 C44.2204889,33.6967949 55.8604444,32.1064103 57.2627556,27.8602564 C57.8272889,26.1461538 57.6365333,23.7583333 53.5198222,22.1166667 Z M24.5224,36.1115385 L20.4192222,33.7551282 L22.7882,29.6724359 L26.8926667,32.0294872 L24.5224,36.1115385 Z M27.3289556,30.4032051 L23.606,28.2647436 C23.9050222,27.7269231 24.0886889,27.3987179 24.1563556,27.2833333 C24.853,26.0826923 25.6256889,25.2096154 26.4757111,24.6647436 C27.3238,24.1179487 28.6288,23.7057692 30.3874889,23.425 C32.1468222,23.1442308 33.2301333,22.9205128 33.6380667,22.7551282 C34.2741333,22.4871795 34.7568222,22.0679487 35.0893556,21.4961538 C35.5507778,20.7025641 35.6268222,19.8391026 35.3174889,18.9064103 C35.0088,17.9730769 34.3140889,17.1967949 33.234,16.5769231 C32.1925778,15.9782051 31.1505111,15.7737179 30.1058667,15.9615385 C29.0618667,16.15 28.0565333,16.774359 27.0918,17.8326923 L23.5937556,15.2038462 C24.7073556,13.5320513 26.3023556,12.4871795 28.3839111,12.0666667 C30.4635333,11.6480769 32.6237111,12.0807692 34.8625111,13.3666667 C37.2192444,14.7198718 38.7382,16.4089744 39.4187333,18.4333333 C40.0992667,20.4576923 39.9671556,22.2833333 39.0243333,23.9096154 C38.5010444,24.8102564 37.7502667,25.5147436 36.7732889,26.0262821 C35.7956667,26.5365385 34.0672667,27.0032051 31.5900222,27.4269231 C30.3069333,27.6455128 29.4343556,27.9128205 28.9722889,28.2282051 C28.5089333,28.5429487 27.9618,29.2685897 27.3289556,30.4032051 Z M20.3438222,48.4423077 C20.3438222,49.2384615 19.6948667,49.8846154 18.8938222,49.8846154 L12.0453111,49.8846154 C11.2442667,49.8846154 10.5953111,49.2384615 10.5953111,48.4423077 C10.5953111,47.6461538 11.2442667,47 12.0453111,47 L18.8938222,47 C19.6948667,47 20.3438222,47.6461538 20.3438222,48.4423077 Z" id="Shape"></path>
            </g>
        </g>
    </g>
</svg>