<?xml version="1.0" encoding="UTF-8"?>
<svg width="72px" height="66px" viewBox="0 0 72 66" version="1.1" xmlns="http://www.w3.org/2000/svg" xmlns:xlink="http://www.w3.org/1999/xlink">
    <!-- Generator: Sketch 48.2 (47327) - http://www.bohemiancoding.com/sketch -->
    <title>Edit</title>
    <desc>Created with Sketch.</desc>
    <defs></defs>
    <g id="Menu-Icon" stroke="none" stroke-width="1" fill="none" fill-rule="evenodd">
        <g id="Edit" fill-rule="nonzero">
            <path d="M69.5,39.9 L58.8,58.5 C56.3,62.8 51.7,65.4 46.8,65.4 L25.3,65.4 C20.3,65.4 15.8,62.8 13.3,58.5 L2.5,39.9 C0,35.6 0,30.3 2.5,26 L13.2,7.4 C15.7,3.1 20.3,0.5 25.2,0.5 L46.7,0.5 C51.7,0.5 56.2,3.1 58.7,7.4 L69.4,26 C72,30.4 72,35.6 69.5,39.9 Z" id="Shape" fill="#273238"></path>
            <g id="noun_1471592_ffffff" transform="translate(20.000000, 15.000000)" fill="#FFFFFF">
                <path d="M36.5700838,8.41346353 L28.5866835,0.429954226 C28.3116274,0.154458346 27.9381112,0 27.5487872,0 C27.1594632,0 26.7863987,0.154458346 26.510891,0.429954226 L22.0146956,4.92595667 C22.0142439,4.9264083 22.0133406,4.92685993 22.012889,4.92731157 C22.012889,4.92731157 22.0119857,4.92821483 22.011534,4.9291181 L2.45184197,24.4870674 C2.24769528,24.6912054 2.10813482,24.9513457 2.05077502,25.2345194 L0.0291807845,35.2413427 C-0.0683760419,35.7232347 0.0820240655,36.2222887 0.430247738,36.5700458 C0.708013702,36.8477998 1.08243319,37 1.46814397,37 C1.5647975,37 1.66235432,36.9905157 1.75900785,36.9710955 L11.7649057,34.9482331 C12.0480915,34.8913274 12.3077914,34.7513213 12.511938,34.5471834 L15.7033109,31.3559475 C15.7042142,31.3550442 15.7051175,31.3545926 15.7060208,31.3536894 C15.7069241,31.3527861 15.7073758,31.3518828 15.7082791,31.3509796 L32.0698235,14.9896857 C32.0711784,14.9887824 32.0725334,14.9883308 32.0734367,14.9869759 C32.07434,14.985621 32.0752433,14.9847177 32.0761466,14.9838145 L36.5705354,10.4896186 C37.1432301,9.91604516 37.1432301,8.98703692 36.5700838,8.41346353 Z M28.9588447,13.9486726 L14.6681246,28.239231 L14.029037,27.6006225 L28.3206605,13.3100641 L28.9588447,13.9486726 Z M11.9532446,25.5249191 L11.4735902,25.045737 L25.7652136,10.7547269 L26.244868,11.2343607 L11.9532446,25.5249191 Z M23.6894211,8.67947513 L9.39824934,22.9700336 L8.75961345,22.3314251 L23.0512369,8.04086665 L23.6894211,8.67947513 Z M10.7491404,32.158047 L3.34430628,33.6547574 L4.84062927,26.2497894 L6.68336932,24.4066768 L8.35990145,26.083137 C8.3603531,26.083137 8.3603531,26.083137 8.3603531,26.083137 C8.3603531,26.0835886 8.36080475,26.0835886 8.36080475,26.0835886 L10.9130901,28.6362161 C10.9139934,28.6366677 10.914445,28.6375709 10.9148967,28.6380226 C10.9153483,28.6384742 10.9162516,28.6389258 10.9171549,28.6393775 L12.5918804,30.3144828 L10.7491404,32.158047 Z M31.0350888,11.8729692 L29.35946,10.1974123 C29.35946,10.1974123 29.3590083,10.1969606 29.3585567,10.196509 C29.358105,10.1960574 29.3576534,10.1960574 29.3572017,10.1956057 L25.1270293,5.96561489 L27.5487872,3.54396094 L33.456395,9.45221849 L31.0350888,11.8729692 Z" id="Shape"></path>
            </g>
        </g>
    </g>
</svg>