<?xml version="1.0" encoding="UTF-8"?>
<svg width="72px" height="66px" viewBox="0 0 72 66" version="1.1" xmlns="http://www.w3.org/2000/svg" xmlns:xlink="http://www.w3.org/1999/xlink">
    <!-- Generator: Sketch 48.2 (47327) - http://www.bohemiancoding.com/sketch -->
    <title>Scores</title>
    <desc>Created with Sketch.</desc>
    <defs></defs>
    <g id="Page-1" stroke="none" stroke-width="1" fill="none" fill-rule="evenodd">
        <g id="Scores" fill-rule="nonzero">
            <path d="M69.5,39.9 L58.8,58.5 C56.3,62.8 51.7,65.4 46.8,65.4 L25.3,65.4 C20.3,65.4 15.8,62.8 13.3,58.5 L2.5,39.9 C0,35.6 0,30.3 2.5,26 L13.2,7.4 C15.7,3.1 20.3,0.5 25.2,0.5 L46.7,0.5 C51.7,0.5 56.2,3.1 58.7,7.4 L69.4,26 C72,30.4 72,35.6 69.5,39.9 Z" id="Shape" fill="#86134F"></path>
            <g id="cup" transform="translate(14.000000, 12.000000)" fill="#FFFFFF">
                <path d="M39.2733333,40.3085106 C39.2255556,40.4042553 39.2255556,40.5 39.2733333,40.5957447 L41.28,43.037234 C41.4711111,43.2287234 41.28,43.5638298 41.0411111,43.5638298 L33.8266667,43.5638298 L33.8266667,37.2446809 L41.0888889,37.2446809 C41.3755556,37.2446809 41.5188889,37.5797872 41.3277778,37.7712766 L39.2733333,40.3085106 Z M1.67222222,37.7712766 L3.67888889,40.212766 C3.72666667,40.3085106 3.72666667,40.4042553 3.67888889,40.5 L1.62444444,43.037234 C1.48111111,43.2287234 1.67222222,43.5638298 1.91111111,43.5638298 L9.12555556,43.5638298 L9.12555556,37.2446809 L1.95888889,37.2446809 C1.67222222,37.2446809 1.52888889,37.5319149 1.67222222,37.7712766 Z M34.1611111,4.5 L42.8088889,4.5 L42.8088889,11.1542553 C42.8088889,15.9414894 38.9388889,19.8191489 34.1611111,19.8191489 L33.0622222,19.8191489 C31.4377778,23.4095745 28.1888889,26.1382979 24.2233333,27 L24.2233333,32.4095745 L27.3288889,32.4095745 C28.2844444,32.4095745 29.0488889,33.1755319 29.0488889,34.1329787 L29.0488889,36.4308511 L31.6766667,36.4308511 L31.6766667,44.5691489 L11.3711111,44.5691489 L11.3711111,36.4308511 L13.9988889,36.4308511 L13.9988889,34.1329787 C13.9988889,33.1755319 14.7633333,32.4095745 15.7188889,32.4095745 L18.8244444,32.4095745 L18.8244444,26.9521277 C14.8588889,26.0904255 11.61,23.4095745 9.98555556,19.7712766 L8.88666667,19.7712766 C4.10888889,19.7712766 0.238888889,15.893617 0.238888889,11.106383 L0.238888889,4.5 L8.88666667,4.5 L8.88666667,0.430851064 L34.1611111,0.430851064 L34.1611111,4.5 Z M8.88666667,15.4148936 C8.88666667,15.1276596 8.83888889,14.8882979 8.83888889,14.6010638 L8.83888889,8.90425532 L4.58666667,8.90425532 L4.58666667,11.1542553 C4.58666667,13.5 6.49777778,15.4148936 8.88666667,15.4148936 Z M20.9266667,6.84574468 C21.6911111,6.84574468 22.3122222,6.22340426 22.3122222,5.45744681 C22.3122222,4.69148936 21.6911111,4.06914894 20.9266667,4.06914894 L13.8077778,4.06914894 C13.0433333,4.06914894 12.4222222,4.69148936 12.4222222,5.45744681 L12.4222222,12.4946809 C12.4222222,13.2606383 13.0433333,13.8829787 13.8077778,13.8829787 C14.5722222,13.8829787 15.1933333,13.2606383 15.1933333,12.4946809 L15.1933333,6.84574468 L20.9266667,6.84574468 Z M18.0122222,36.8138298 L18.0122222,41.1702128 L25.0355556,41.1702128 L25.0355556,36.8138298 L18.0122222,36.8138298 Z M34.1611111,8.90425532 L34.1611111,14.6010638 C34.1611111,14.8882979 34.1611111,15.1755319 34.1133333,15.4148936 L34.1611111,15.4148936 C36.5022222,15.4148936 38.4133333,13.5 38.4133333,11.1542553 L38.4133333,8.90425532 L34.1611111,8.90425532 Z" id="Shape"></path>
            </g>
        </g>
    </g>
</svg>