<?xml version="1.0" encoding="UTF-8"?>
<svg width="72px" height="66px" viewBox="0 0 72 66" version="1.1" xmlns="http://www.w3.org/2000/svg" xmlns:xlink="http://www.w3.org/1999/xlink">
    <!-- Generator: Sketch 48.2 (47327) - http://www.bohemiancoding.com/sketch -->
    <title>Guess Word</title>
    <desc>Created with Sketch.</desc>
    <defs></defs>
    <g id="Page-1" stroke="none" stroke-width="1" fill="none" fill-rule="evenodd">
        <g id="Guess-Word" fill-rule="nonzero">
            <path d="M69.5,39.9 L58.8,58.5 C56.3,62.8 51.7,65.4 46.8,65.4 L25.3,65.4 C20.3,65.4 15.8,62.8 13.3,58.5 L2.5,39.9 C0,35.6 0,30.3 2.5,26 L13.2,7.4 C15.7,3.1 20.3,0.5 25.2,0.5 L46.7,0.5 C51.7,0.5 56.2,3.1 58.7,7.4 L69.4,26 C72,30.4 72,35.6 69.5,39.9 Z" id="Shape" fill="#817622"></path>
            <g id="noun_384611_ffffff" transform="translate(12.000000, 11.000000)" fill="#FFFFFF">
                <polygon id="Shape" points="12.0118652 20.1699259 7.15739326 18.9629136 7.15739326 25.2027654 12.0118652 26.4092346"></polygon>
                <path d="M15.0730787,0.108098765 C14.0284045,0.26182716 11.8969888,0.52691358 10.8490787,0.678469136 C15.0320899,2.62316049 19.3736629,4.77753086 22.0578876,7.22632099 C20.2975281,4.68192593 18.264809,2.22064198 15.0730787,0.108098765 Z" id="Shape"></path>
                <path d="M20.3660225,9.07269136 L20.3660225,42.0699753 C22.9499326,44.3047407 25.344,43.8609383 27.6442247,42.0699753 L27.6442247,9.07269136 C25.3564045,10.3003457 22.9434607,10.4339753 20.3660225,9.07269136 Z" id="Shape"></path>
                <path d="M40.5826517,1.25590123 C35.258427,2.56123457 31.4497079,4.94266667 28.055191,7.61688889 C32.4194157,5.2468642 38.2349663,3.69491358 43.630382,2.80024691 C42.9546067,2.35046914 41.258427,1.70459259 40.5826517,1.25590123 Z" id="Shape"></path>
                <path d="M33.2359551,0.108098765 C30.0442247,2.22064198 28.0109663,4.68192593 26.2468315,7.22632099 C28.9342921,4.77753086 32.8438652,1.95175309 37.5629663,0.108098765 C36.5226067,-0.044 34.2773933,0.261283951 33.2359551,0.108098765 Z" id="Shape"></path>
                <path d="M4.36044944,3.05501235 C9.75640449,3.94967901 15.8869213,5.2468642 20.2533034,7.61688889 C16.8598652,4.94266667 13.0500674,2.56123457 7.7258427,1.25590123 C7.04629213,1.70459259 5.03730337,2.60469136 4.36044944,3.05501235 Z" id="Shape"></path>
                <path d="M0.22705618,37.8171852 C6.85968539,38.5255309 13.0187865,40.094321 18.9378876,42.0955062 L18.9378876,9.07269136 C13.2124045,7.06933333 7.09698876,5.5054321 0.22705618,4.79382716 L0.22705618,37.8171852 Z M13.3402247,30.8342222 C13.2641798,31.1438519 12.9896629,31.3508148 12.6865618,31.3508148 C12.6326292,31.3508148 12.5786966,31.3442963 12.5242247,31.3312593 L6.32197753,29.7885432 C5.96062921,29.6989136 5.74004494,29.3311605 5.82903371,28.9666667 C5.91802247,28.602716 6.2858427,28.3816296 6.64503371,28.4701728 L12.8472809,30.0128889 C13.2091685,30.1019753 13.4297528,30.4702716 13.3402247,30.8342222 Z M5.80907865,18.0959506 C5.80907865,17.8868148 5.90453933,17.6901728 6.06741573,17.5614321 C6.23083146,17.4326914 6.44278652,17.3876049 6.64449438,17.437037 L12.8467416,18.9786667 C13.1476854,19.0536296 13.3591011,19.3257778 13.3591011,19.6375802 L13.3591011,27.2767407 C13.3591011,27.4853333 13.2636404,27.6825185 13.100764,27.8112593 C12.9810337,27.9052346 12.8337978,27.9557531 12.6849438,27.9557531 C12.6310112,27.9557531 12.5770787,27.9492346 12.5231461,27.9361975 L6.32089888,26.3934815 C6.01995506,26.3190617 5.808,26.0474568 5.808,25.7345679 L5.808,18.0959506 L5.80907865,18.0959506 Z" id="Shape"></path>
                <path d="M28.775191,9.07269136 L28.775191,42.0955062 C34.6953708,40.094321 40.8539326,38.5255309 47.4833258,37.8171852 L47.4833258,4.79328395 C40.6139326,5.50488889 34.5012135,7.06933333 28.775191,9.07269136 Z M31.1530787,12.1548642 L45.3475955,8.81140741 C45.7051685,8.72395062 46.0724494,8.95209877 46.1571236,9.31822222 C46.2417978,9.68325926 46.0168989,10.0488395 45.6539326,10.1335802 L31.4599551,13.477037 C31.4081798,13.4889877 31.3569438,13.494963 31.3057079,13.494963 C30.9999101,13.494963 30.7226966,13.2836543 30.6498876,12.9707654 C30.5652135,12.6057284 30.7901124,12.2401481 31.1530787,12.1548642 Z M40.3372584,14.8165926 L39.624809,14.9844444 C39.573573,14.9963951 39.5223371,15.0023704 39.4711011,15.0023704 C39.1653034,15.0023704 38.8880899,14.7910617 38.8152809,14.4781728 C38.7306067,14.1125926 38.9560449,13.7475556 39.3184719,13.6622716 L40.030382,13.4944198 C40.389573,13.406963 40.7557753,13.6351111 40.8404494,14.0006914 C40.9251236,14.3662716 40.6996854,14.7318519 40.3372584,14.8165926 Z M37.4874607,15.488 L36.7755506,15.6558519 C36.7237753,15.6678025 36.6725393,15.6737778 36.6218427,15.6737778 C36.3155056,15.6737778 36.0382921,15.4624691 35.9654831,15.1495802 C35.880809,14.784 36.1062472,14.418963 36.4686742,14.333679 L37.1811236,14.1658272 C37.539236,14.0783704 37.9059775,14.3065185 37.9906517,14.6720988 C38.0753258,15.037679 37.8498876,15.402716 37.4874607,15.488 Z M34.6382022,16.1594074 L33.9262921,16.3272593 C33.8739775,16.3392099 33.8232809,16.3451852 33.7720449,16.3451852 C33.4662472,16.3451852 33.1890337,16.1338765 33.1162247,15.8204444 C33.0310112,15.4554074 33.2564494,15.0898272 33.6194157,15.0050864 L34.3318652,14.8372346 C34.6937528,14.7514074 35.0567191,14.9784691 35.1413933,15.3440494 C35.2260674,15.7096296 35.0000899,16.0741235 34.6382022,16.1594074 Z M31.7878652,16.8308148 L31.4599551,16.9079506 C31.4081798,16.9199012 31.3564045,16.9258765 31.3057079,16.9258765 C30.9999101,16.9258765 30.7226966,16.7140247 30.6498876,16.4011358 C30.5652135,16.0355556 30.7906517,15.6705185 31.1530787,15.5857778 L31.4815281,15.508642 C31.8450337,15.4222716 32.2069213,15.6504198 32.2910562,16.0154568 C32.3762697,16.3804938 32.1508315,16.7455309 31.7878652,16.8308148 Z M40.8334382,18.130716 L31.4599551,20.3388642 C31.4081798,20.351358 31.3569438,20.3567901 31.3057079,20.3567901 C30.9999101,20.3567901 30.7226966,20.1460247 30.6498876,19.8325926 C30.5652135,19.4675556 30.7901124,19.1019753 31.1530787,19.0172346 L40.5265618,16.8090864 C40.8846742,16.7221728 41.2519551,16.9497778 41.3366292,17.3159012 C41.4213034,17.6798519 41.1964045,18.0454321 40.8334382,18.130716 Z M43.1865169,14.1457284 L42.4740674,14.3135802 C42.4222921,14.3255309 42.3715955,14.3315062 42.3203596,14.3315062 C42.0145618,14.3315062 41.7373483,14.1201975 41.6645393,13.8073086 C41.5798652,13.4422716 41.8053034,13.0766914 42.1677303,12.9914074 L42.8796404,12.8235556 C43.2420674,12.7371852 43.6050337,12.9647901 43.6897079,13.3303704 C43.7749213,13.6948642 43.5494831,14.0604444 43.1865169,14.1457284 Z M45.6550112,13.5644938 L45.3265618,13.6421728 C45.2742472,13.6541235 45.2230112,13.6600988 45.1717753,13.6600988 C44.8659775,13.6600988 44.588764,13.4493333 44.5159551,13.1364444 C44.4312809,12.7708642 44.6556404,12.4058272 45.0180674,12.32 L45.3465169,12.242321 C45.7089438,12.1564938 46.0724494,12.3830123 46.1571236,12.7480494 C46.2417978,13.1136296 46.0174382,13.4786667 45.6550112,13.5644938 Z" id="Shape"></path>
            </g>
        </g>
    </g>
</svg>